<?xml version="1.0" encoding="UTF-8"?>
<svg xmlns="http://www.w3.org/2000/svg" version="1.1" viewBox="0 0 29.73 30">
  <!-- Generator: Adobe Illustrator 29.8.6, SVG Export Plug-In . SVG Version: 2.1.1 Build 1)  -->
  <defs>
    <style>
      .st0 {
        stroke: #daff00;
        stroke-miterlimit: 10;
        stroke-width: 5px;
      }

      .st0, .st1, .st2 {
        fill: #254a72;
      }

      .st3 {
        fill: #daff00;
      }

      .st4 {
        fill: #f9ff00;
      }

      .st5 {
        display: none;
      }

      .st2 {
        font-family: BalboaPlus-Fill, BalboaPlus;
        font-size: 3.89px;
      }
    </style>
  </defs>
  <g id="Layer_2">
    <g>
      <path class="st1" d="M14.64,1.35h.45c7.67,0,13.9,6.23,13.9,13.9h0c0,7.67-6.23,13.9-13.9,13.9h-.45C6.97,29.15.74,22.92.74,15.25h0C.74,7.58,6.97,1.35,14.64,1.35Z"/>
      <path class="st3" d="M24.7,29.44H5.03c-2.52,0-4.58-2.05-4.58-4.58V5.64C.45,3.11,2.51,1.06,5.03,1.06h19.67c2.52,0,4.58,2.05,4.58,4.58v19.22c0,2.52-2.05,4.58-4.58,4.58ZM5.03,1.63C2.82,1.63,1.03,3.43,1.03,5.64v19.22c0,2.21,1.8,4.01,4.01,4.01h19.67c2.21,0,4.01-1.8,4.01-4.01V5.64c0-2.21-1.8-4.01-4.01-4.01H5.03Z"/>
    </g>
  </g>
  <g id="Layer_4">
    <rect class="st1" x="-.54" y="-.06" width="30.79" height="30.73"/>
  </g>
  <g id="Layer_3" class="st5">
    <ellipse class="st0" cx="134.54" cy="134.84" rx="129.73" ry="128.72"/>
  </g>
  <g id="Layer_1">
    <g>
      <path class="st4" d="M11.01,14.19s0-.01,0-.02c.41-1.14,1.59-2.14,2.71-2.64.41-.16.75.02.73.44,0,.53-.41.97-.44,1.49-.09,1.61,2.43,1.98,2.74.34.14-.63-.31-1.09-.41-1.69-.12-.58.26-.88.87-.54,1.01.59,2.68,1.84,2.71,3.13,0,1.75.04,10.33.04,11.41,0,.06-.05.11-.11.11h-8.84c-.06,0-.11-.05-.11-.11,0-.84-.12-10.97.11-11.93Z"/>
      <path class="st4" d="M15.03,9.62c-.9-.41-5.08,2.16-6.27,2.66,0,0,0,0,0,0-.53.29-1.95.64-1.53,1.43,0,0,.01.02.02.03.45.49,1.1.23,1.74.24.29.02,1.17-.14,1.15.27,0,.02,0,.03-.01.05-.23.42-.84.27-1.32.32,0,0,0,0,0,0-.61.01-1.28.09-1.79-.2-.52-.28-.75-.95-.48-1.47.23-.47.75-.7,1.22-.91,2.32-.97,4.45-2.49,6.88-3.14,0,0,0,0,.01,0,.64-.08.46-.69.6-1.15.18-.71,1.08-.99,1.26-1.71.36-1.29-1.3-2.11-2.08-.98-.18.22-.27.83-.62.78-.15-.04-.23-.34-.18-.55.2-1.08,1.53-1.76,2.53-1.26,1.26.51,1.41,2.33.4,3.15-.19.18-.39.32-.54.52-.24.33-.36.89.05,1.12.13.07.28.1.43.14.56.16,1.11.41,1.63.67.38.2.46.65.06.63-.33.01-2.36-1.15-2.39-.59-.04.76,0,2.65-.02,3.49,0,.17-.01.43-.21.47-.17.05-.4-.16-.43-.37-.06-.26,0-.44,0-.76,0-.74,0-1.91,0-2.49,0-.14,0-.3-.11-.39h-.01Z"/>
      <path class="st4" d="M24.31,9.71c.07.13-.34.25-.44.31-2.08.86-1.45,3.2-2.23,1.29,0,0,0,0,0-.01-.31-.62-.89-1.07-1.54-1.3-.8-.29.19-.49.47-.7.57-.36,1.04-1.01,1.28-1.65.02-.04.04-.1.06-.15.04-.09.17-.09.21,0h0c.09.21.16.45.27.66.25.47.74.94,1.24,1.23.21.13.51.18.69.32h0Z"/>
      <path class="st4" d="M23.83,13.92c.31-.19.36-.69.07-.93-.24-.25-.71-.33-.84-.57-.13-.22,0-.62.32-.51.43.16.98.45,1.21.78.37.53.24,1.32-.29,1.7-.4.3-.71.23-1.17.24-.71,0-1.8,0-2.24,0-.07,0-.13,0-.19-.04-.15-.1-.23-.34-.2-.51.04-.12.24-.08.55-.09.66,0,1.39,0,2.03,0,.28,0,.59.03.74-.07h.01Z"/>
    </g>
    <text class="st2" transform="translate(11.43 22.62) scale(1.02 1)"><tspan x="0" y="0">Taime</tspan></text>
  </g>
</svg>