<?xml version="1.0" encoding="UTF-8"?>
<svg id="Layer_1" xmlns="http://www.w3.org/2000/svg" version="1.1" viewBox="0 0 180 180">
  <!-- Generator: Adobe Illustrator 29.8.6, SVG Export Plug-In . SVG Version: 2.1.1 Build 1)  -->
  <defs>
    <style>
      .st0 {
        fill: #254a72;
      }

      .st1 {
        fill: #f9ff00;
      }
    </style>
  </defs>
  <rect class="st0" x="-.66" y="-1" width="182.66" height="182.31"/>
  <g>
    <path class="st1" d="M67.85,83.54s.02-.06.03-.09c2.45-6.78,9.42-12.71,16.05-15.64,2.43-.95,4.48.15,4.31,2.59-.06,3.13-2.45,5.76-2.61,8.82-.53,9.55,14.45,11.76,16.27,2.04.83-3.73-1.83-6.46-2.41-10-.73-3.47,1.52-5.22,5.14-3.21,6.02,3.52,15.9,10.93,16.1,18.58.04,10.39.21,61.26.23,67.7,0,.37-.3.67-.68.67h-52.42c-.38,0-.68-.3-.68-.67.02-4.96-.74-65.07.67-70.78Z"/>
    <path class="st1" d="M91.69,56.46c-5.34-2.43-30.14,12.83-37.19,15.76-.02,0-.03.02-.05.03-3.12,1.75-11.58,3.78-9.08,8.51.03.06.07.12.12.17,2.69,2.9,6.51,1.36,10.33,1.42,1.7.14,6.97-.81,6.85,1.62,0,.09-.03.19-.08.28-1.35,2.51-4.99,1.6-7.81,1.92-.01,0-.03,0-.04,0-3.64.07-7.59.53-10.6-1.17-3.11-1.63-4.47-5.65-2.84-8.74,1.34-2.79,4.48-4.17,7.22-5.37,13.74-5.78,26.37-14.79,40.82-18.63.03,0,.05-.01.08-.02,3.82-.49,2.74-4.1,3.59-6.81,1.1-4.21,6.39-5.88,7.5-10.13,2.14-7.62-7.69-12.54-12.32-5.8-1.1,1.28-1.63,4.92-3.68,4.61-.86-.22-1.36-2.02-1.06-3.27,1.18-6.38,9.07-10.42,15.04-7.45,7.49,3.04,8.37,13.8,2.35,18.69-1.13,1.04-2.33,1.91-3.22,3.09-1.43,1.97-2.14,5.29.27,6.63.76.43,1.67.62,2.52.85,3.35.93,6.57,2.43,9.68,3.98,2.27,1.2,2.74,3.83.38,3.72-1.93.07-13.99-6.79-14.17-3.51-.22,4.49-.02,15.7-.09,20.72,0,1.03-.07,2.53-1.23,2.8-1.01.27-2.35-.96-2.55-2.21-.33-1.55.02-2.61,0-4.54,0-4.41,0-11.32,0-14.79-.03-.81,0-1.77-.64-2.31l-.06-.05Z"/>
    <path class="st1" d="M146.76,57c.39.77-2.02,1.5-2.64,1.85-12.36,5.07-8.6,18.98-13.23,7.68,0-.02-.02-.04-.03-.06-1.81-3.65-5.27-6.33-9.12-7.74-4.75-1.71,1.15-2.9,2.77-4.17,3.38-2.16,6.18-6.01,7.59-9.8.11-.24.21-.57.34-.87.23-.54,1-.56,1.24-.02h0c.52,1.23.96,2.7,1.63,3.89,1.49,2.78,4.37,5.6,7.33,7.27,1.25.79,3.01,1.04,4.08,1.91l.04.05Z"/>
    <path class="st1" d="M143.91,81.95c1.83-1.15,2.12-4.07.39-5.49-1.44-1.46-4.23-1.97-4.99-3.36-.8-1.33-.05-3.66,1.89-3.02,2.53.97,5.84,2.65,7.2,4.64,2.18,3.15,1.41,7.85-1.73,10.08-2.36,1.8-4.24,1.34-6.97,1.4-4.2-.01-10.67,0-13.27-.03-.4-.01-.78-.06-1.11-.24-.87-.59-1.37-1.99-1.16-3.02.21-.7,1.41-.47,3.24-.52,3.92,0,8.23,0,12.03,0,1.69-.04,3.5.17,4.4-.4l.08-.05Z"/>
  </g>
  <g>
    <path class="st0" d="M78.74,118.38h-2.46v15.32h-3.12v-15.32h-2.44v-2.45h8.01v2.45Z"/>
    <path class="st0" d="M88.18,133.65h-3.14l-.23-2.47h-1.85l-.23,2.47h-2.6l2.32-17.72h3.35l2.39,17.72ZM84.51,128.71l-.56-7.06-.73,7.06h1.29Z"/>
    <path class="st0" d="M94.04,133.7h-3.12v-17.77h3.12v17.77Z"/>
    <path class="st0" d="M107.51,133.7h-3v-8.31l-1.33,8.31h-1.92l-1.41-8.31v8.31h-2.58v-17.77h3.61l1.43,10.45,1.69-10.45h3.51v17.77Z"/>
    <path class="st0" d="M117.07,133.65h-6.32v-17.72h6.3v2.45h-3.19v4.91h2.65v2.49h-2.65v5.42h3.21v2.45Z"/>
  </g>
</svg>